<?xml version="1.0" encoding="utf-8" ?>
<svg xmlns="http://www.w3.org/2000/svg" xmlns:xlink="http://www.w3.org/1999/xlink" width="759" height="766">
	<path fill="#856FFE" transform="matrix(1.52716 0 0 1.5259 0 3.05176e-05)" d="M230.03 3.35252C235.639 2.86357 241.588 3.25585 247.226 3.25274C254.806 3.24856 262.599 2.88009 270.15 3.44889C272.729 3.64315 275.371 4.06634 277.861 4.77346C281.631 5.844 285.304 8.28847 288.4 10.6216C295.862 16.2466 299.202 24.55 299.346 33.7146C299.406 37.579 299.029 41.4832 298.96 45.3541Q298.826 52.6687 299.898 59.9056C301.146 68.2239 304.472 76.0507 311.425 81.139C323.177 89.7395 340.251 86.4689 351.057 77.7941C362.45 68.6481 367.119 56.734 383.363 54.3414Q384.141 54.2221 384.924 54.1421Q385.708 54.0621 386.494 54.0215Q387.28 53.981 388.068 53.9801Q388.855 53.9791 389.641 54.0178Q390.428 54.0564 391.211 54.1345Q391.995 54.2127 392.773 54.3301Q393.552 54.4475 394.323 54.604Q395.095 54.7604 395.858 54.9554Q396.621 55.1504 397.373 55.3835Q398.125 55.6167 398.864 55.8873Q399.603 56.158 400.328 56.4654Q401.053 56.7729 401.761 57.1164Q402.47 57.46 403.16 57.8387Q403.85 58.2174 404.521 58.6303Q405.191 59.0433 405.84 59.4894Q406.489 59.9355 407.114 60.4137C409.656 62.3341 411.736 64.6712 413.981 66.9077Q418.739 71.5718 423.419 76.314C428.464 81.4028 433.926 86.3171 438.672 91.6735Q441.178 94.5059 443.149 97.7339C445.47 101.606 446.745 106.444 447.318 110.889C448.283 118.382 445.727 128.208 440.303 133.647C437.81 136.146 434.574 137.96 431.926 140.306C426.886 144.77 421.995 149.854 417.867 155.177C413.279 161.095 411.016 167.843 412.013 175.372C412.703 180.583 415.061 185.804 418.553 189.735C424.089 195.968 433.138 199.44 441.283 200.286C444.558 200.626 447.854 200.483 451.138 200.643C454.771 200.821 458.426 201.232 462.058 201.5C468.737 201.993 474.478 202.469 479.953 206.756C487.019 212.289 491.196 219.996 492.19 228.875C493.03 236.376 492.564 244.25 492.544 251.798C492.524 259.595 493.324 270.787 491.571 278.247C490.483 282.876 487.931 287.728 484.955 291.418C473.357 305.803 457.019 299.789 441.451 301.451C432.716 302.383 424.556 305.187 418.952 312.218C408.471 325.366 412.832 341.586 423.301 353.201C428.884 359.394 436.086 364.373 440.855 371.275C443.886 375.661 445.865 381.728 446.397 387.013C447.255 395.553 443.926 403.855 438.566 410.367C433.495 416.527 426.222 422.983 420.416 428.63C414.859 434.035 409.505 440.698 402.846 444.725C399.211 446.923 394.604 448.193 390.395 448.588C371.149 450.393 363.834 434.44 350.931 423.973C345.197 419.322 337.058 416.325 329.647 417.134C320.998 418.079 312.457 420.593 306.726 427.541C297.458 438.776 300.335 453.907 299.98 467.28C299.894 470.492 299.44 473.688 298.9 476.851C298.15 481.241 296.915 485.384 294.071 488.897C289.262 494.836 281.772 497.753 274.348 498.473C268.189 499.07 261.877 498.621 255.704 498.458C241.799 498.091 234.723 499.666 223.139 489.985C217.563 485.324 212.544 478.711 210.141 471.816C207.654 464.678 207.522 456.757 206.701 449.296C206.008 443 205.11 436.695 204.19 430.428L197.731 388.777C196.946 383.476 195.772 378.067 195.343 372.732C194.018 356.258 198.419 336.96 205.584 322.066C211.213 310.365 219.054 299.414 226.608 288.904L240.36 269.727Q247.149 260.376 253.741 250.885C257.264 245.851 260.698 240.656 264.691 235.977C274.395 243.23 293.01 261.273 298.456 271.911C301.185 277.242 302.251 283.278 305.115 288.514C307.453 292.79 312.027 295.292 316.566 296.611C321.17 297.949 325.734 297.601 330.452 297.443C341.602 297.069 356.739 295.715 366.566 290.191C373.7 286.181 378.682 278.949 380.796 271.117C382.05 266.473 379.2 262.02 376.998 258.123C373.888 252.004 370.07 245.887 365.901 240.434C358.629 230.923 349.96 222.296 341.512 213.834C332.158 204.464 322.435 194.504 311.444 187.045C306.178 183.471 300.251 180.705 294.412 178.221C263.762 165.18 231.376 158.132 198.464 153.848C183.628 151.917 168.042 150.289 153.098 151.649C143.851 152.492 134.042 154.983 125.451 158.446C130.883 160.007 136.378 161.4 141.751 163.156C155.613 167.689 168.943 173.37 182.105 179.619C187.447 182.156 192.872 184.595 198.011 187.53C207.636 193.027 217.149 199.804 226.114 206.34C229.164 208.564 237.888 214.263 239.747 217.147C238.687 220.404 226.909 235.647 224.156 239.584C213.659 254.596 203.003 269.452 192.75 284.64C180.84 302.283 169.004 320.578 161.719 340.723C158.992 348.264 157.125 360.072 156.435 368.199C156.075 372.445 156.006 376.716 155.71 380.968C155.438 384.883 154.982 388.78 154.646 392.69C154.26 397.176 154.176 401.854 153.236 406.26C151.683 413.538 146.467 425.094 141.511 430.684C133.998 439.158 124.112 447.516 112.346 448.184C103.77 448.671 95.3472 447.412 88.7611 441.53C83.8625 437.155 79.749 431.454 75.3188 426.57C68.41 418.955 59.4371 411.154 54.1383 402.369C51.909 398.673 50.4867 394.43 50.2498 390.114C49.0402 368.079 64.3791 365.39 76.545 351.544C81.6597 345.723 82.7593 336.833 82.212 329.381C81.7356 322.893 79.6806 316.548 75.7967 311.291C72.2818 306.534 67.008 302.684 61.1392 301.504C57.1097 300.693 52.8923 301.01 48.8144 301.195C36.0234 301.778 24.3622 301.925 14.0904 292.843C7.44491 286.967 4.63141 277.968 4.12873 269.384C3.79443 263.675 4.27943 257.955 4.20764 252.242C4.13629 246.564 3.94652 240.921 4.07501 235.239C4.29452 225.532 5.1019 217.559 11.9312 209.97C23.6938 196.899 39.1348 200.82 54.6057 200.002C62.2453 199.599 70.0415 195.981 75.1663 190.256C79.7189 185.17 82.3541 179.72 83.0374 172.887C84.4849 158.412 75.3878 149.207 65.7483 139.961C63.0311 137.354 60.1408 134.814 57.8663 131.799C55.6961 128.922 54.1659 125.623 52.9144 122.259C51.8306 119.346 51.0458 116.44 50.8844 113.323C50.4691 105.306 54.076 96.3016 59.487 90.4361C65.6691 83.7346 72.3923 77.4831 78.8755 71.0785C83.3076 66.7002 88.1266 60.7673 93.3504 57.5506C98.0782 54.6394 103.829 52.9881 109.367 52.7912C120.649 52.3902 127.91 58.4038 135.189 66.2983C137.173 68.4498 139.089 70.7777 141.251 72.75C143.664 74.9516 146.185 77.0558 148.666 79.182C155.261 84.8349 161.248 88.8806 170.313 88.3908C175.841 88.0921 181.221 86.2567 186.032 83.5731C189.556 81.6075 192.938 78.9473 195.023 75.4313C197.884 70.6058 198.24 64.4733 198.271 59.0013Q198.304 51.3199 198.143 43.6402C197.958 32.4382 197.907 22.8049 205.916 13.9163C212.052 7.10705 221.03 3.84372 230.03 3.35252Z"/>
</svg>
