<svg width="32" height="32" viewBox="0 0 32 32" fill="none" xmlns="http://www.w3.org/2000/svg">
    <rect width="32" height="32" rx="16" fill="#FC9D0F"/>
    <path d="M23.0893 10.8334C23.0893 10.8334 16.1191 8.41675 11.2925 13.2501C6.46595 18.0834 8.88262 25.0001 8.88262 25.0001C8.88262 25.0001 15.8528 27.4167 20.6793 22.5834C25.5059 17.7501 23.0893 10.8334 23.0893 10.8334ZM19.256 19.7501L16.8393 22.1667L14.4226 19.7501L16.8393 17.3334L19.256 19.7501ZM17.556 16.6167L15.1393 19.0334L12.7226 16.6167L15.1393 14.2001L17.556 16.6167ZM18.5393 15.6334L16.1226 18.0501L13.706 15.6334L16.1226 13.2167L18.5393 15.6334Z" fill="white"/>
</svg> 